<svg xmlns="http://www.w3.org/2000/svg" width="1200" height="800" viewBox="0 0 1200 800" role="img" aria-labelledby="title desc">
  <title id="title">Cross-sectional equity signal research thumbnail</title>
  <desc id="desc">Stylized research notebook showing point-in-time universe checks, factor artifact removal, and null-result evaluation.</desc>
  <defs>
    <linearGradient id="bg" x1="0" y1="0" x2="1" y2="1">
      <stop offset="0" stop-color="#111827"/>
      <stop offset="0.52" stop-color="#1f2937"/>
      <stop offset="1" stop-color="#3b2f1f"/>
    </linearGradient>
    <linearGradient id="chart" x1="0" y1="0" x2="1" y2="0">
      <stop offset="0" stop-color="#38bdf8"/>
      <stop offset="1" stop-color="#fbbf24"/>
    </linearGradient>
    <filter id="shadow" x="-20%" y="-20%" width="140%" height="140%">
      <feDropShadow dx="0" dy="18" stdDeviation="18" flood-color="#000" flood-opacity="0.35"/>
    </filter>
  </defs>
  <rect width="1200" height="800" fill="url(#bg)"/>
  <g filter="url(#shadow)">
    <rect x="130" y="110" width="940" height="580" rx="30" fill="#0b1220" stroke="#374151"/>
    <rect x="180" y="170" width="420" height="230" rx="20" fill="#111827" stroke="#2b384b"/>
    <rect x="640" y="170" width="380" height="230" rx="20" fill="#111827" stroke="#2b384b"/>
    <rect x="180" y="440" width="840" height="170" rx="20" fill="#111827" stroke="#2b384b"/>
  </g>
  <g fill="#e5e7eb" font-family="Inter, Arial, sans-serif">
    <text x="205" y="255" font-size="35" font-weight="700">Cross-Sectional Equity</text>
    <text x="205" y="302" font-size="35" font-weight="700">Signal Research</text>
    <text x="205" y="350" font-size="23" fill="#cbd5e1">Python · pandas · scikit-learn</text>
  </g>
  <g fill="none" stroke="url(#chart)" stroke-width="9" stroke-linecap="round" stroke-linejoin="round">
    <path d="M680 330 C725 280 760 345 805 295 S900 250 970 220"/>
    <path d="M225 545 L305 520 L385 555 L465 500 L545 530 L625 485 L705 510 L785 470 L865 492 L965 450"/>
  </g>
  <g>
    <rect x="690" y="230" width="32" height="110" rx="9" fill="#38bdf8" opacity="0.8"/>
    <rect x="750" y="270" width="32" height="70" rx="9" fill="#fbbf24" opacity="0.85"/>
    <rect x="810" y="205" width="32" height="135" rx="9" fill="#38bdf8" opacity="0.75"/>
    <rect x="870" y="250" width="32" height="90" rx="9" fill="#fbbf24" opacity="0.8"/>
    <rect x="930" y="190" width="32" height="150" rx="9" fill="#38bdf8" opacity="0.85"/>
  </g>
  <g fill="#fbbf24" font-family="Inter, Arial, sans-serif">
    <rect x="710" y="552" width="285" height="44" rx="22" opacity="0.18"/>
    <text x="742" y="581" font-size="22" font-weight="700">PIT artifact removed</text>
  </g>
</svg>
